<svg width="29" height="29" viewBox="0 0 29 29" fill="none" xmlns="http://www.w3.org/2000/svg">
<path d="M23.4382 0.524415C23.1291 0.524798 22.8271 0.617332 22.5708 0.790197C22.3146 0.963063 22.1157 1.20841 21.9995 1.4949C21.8833 1.78139 21.8552 2.09601 21.9186 2.39858C21.9821 2.70114 22.1343 2.97792 22.3558 3.19354L23.2059 4.04377C14.1102 4.17814 6.74497 11.6221 6.74497 20.7509C6.74206 20.9569 6.78011 21.1614 6.85692 21.3526C6.93373 21.5438 7.04776 21.7178 7.19239 21.8645C7.33702 22.0112 7.50936 22.1277 7.6994 22.2072C7.88944 22.2868 8.09338 22.3277 8.29938 22.3277C8.50538 22.3277 8.70932 22.2868 8.89936 22.2072C9.0894 22.1277 9.26174 22.0112 9.40637 21.8645C9.551 21.7178 9.66503 21.5438 9.74184 21.3526C9.81865 21.1614 9.8567 20.9569 9.85379 20.7509C9.85379 13.3096 15.7818 7.30471 23.1862 7.16079L22.3558 7.99128C22.2067 8.13454 22.0875 8.30614 22.0055 8.49601C21.9234 8.68589 21.8801 8.89023 21.878 9.09707C21.8759 9.30391 21.9151 9.50909 21.9932 9.7006C22.0714 9.8921 22.187 10.0661 22.3332 10.2123C22.4795 10.3586 22.6534 10.4742 22.8449 10.5524C23.0364 10.6306 23.2415 10.6698 23.4483 10.6677C23.6551 10.6656 23.8594 10.6222 24.0492 10.5402C24.2391 10.4581 24.4106 10.339 24.5539 10.1897L27.9131 6.8298C28.1045 6.68438 28.2596 6.49654 28.3662 6.28104C28.4728 6.06555 28.5279 5.82828 28.5273 5.58786C28.5267 5.34745 28.4704 5.11045 28.3628 4.89548C28.2552 4.68051 28.0992 4.49343 27.9071 4.34895L24.5539 0.995079C24.4088 0.845964 24.2354 0.727474 24.0437 0.646628C23.8521 0.565782 23.6461 0.524224 23.4382 0.524415ZM5.57917 0.539597C2.80754 0.539597 0.527344 2.82024 0.527344 5.59241V23.4716C0.527344 26.2438 2.80754 28.5244 5.57917 28.5244H23.4549C26.2265 28.5244 28.5067 26.2438 28.5067 23.4716V17.6414C28.5096 17.4354 28.4715 17.2309 28.3947 17.0397C28.3179 16.8485 28.2039 16.6745 28.0593 16.5278C27.9146 16.3811 27.7423 16.2646 27.5522 16.185C27.3622 16.1055 27.1583 16.0646 26.9523 16.0646C26.7463 16.0646 26.5423 16.1055 26.3523 16.185C26.1623 16.2646 25.9899 16.3811 25.8453 16.5278C25.7007 16.6745 25.5866 16.8485 25.5098 17.0397C25.433 17.2309 25.3949 17.4354 25.3979 17.6414V23.4716C25.3979 24.5629 24.5459 25.415 23.4549 25.415H5.57917C4.48809 25.415 3.63616 24.5629 3.63616 23.4716V5.59241C3.63616 4.50112 4.48809 3.64902 5.57917 3.64902H11.4082C11.6142 3.65194 11.8187 3.61387 12.0098 3.53705C12.201 3.46023 12.3749 3.34617 12.5216 3.20151C12.6683 3.05686 12.7848 2.88448 12.8643 2.69441C12.9438 2.50433 12.9847 2.30035 12.9847 2.09431C12.9847 1.88827 12.9438 1.68429 12.8643 1.49421C12.7848 1.30414 12.6683 1.13176 12.5216 0.987106C12.3749 0.842448 12.201 0.728394 12.0098 0.651569C11.8187 0.574745 11.6142 0.536684 11.4082 0.539597H5.57917Z" fill="black"/>
</svg>
